<?xml version="1.0" encoding="UTF-8"?><svg id="a" xmlns="http://www.w3.org/2000/svg" viewBox="0 0 570 630"><path d="M566.6,158.7c-1.5-2-2.4-4.3-4.6-5.7-30.5,17.4-61,34.8-91.5,52.2,30.5-17.4,61-34.8,91.5-52.2-3-4.9-7.8-7.6-12.6-10.3-68.6-38.3-137.1-76.6-205.7-114.8-16.1-9-31.8-18.8-48.6-26.4-.3-.1-.6-.4-.6-.7,0-.2.3-.4.5-.7h-3c0,.2,0,.4-.1.6-.3-.2-.6-.4-.9-.6h-17c1.3.9.2,1.4-.4,1.7-27.2,13.4-53.1,29.1-79.5,43.8-58.3,32.4-116.4,65.2-174.7,97.7-8.3,4.6-14.8,10.7-18,19.8,0,.3-.5.6-.7.6-.2,0-.4-.3-.7-.5v299c.4.3,1.2.7,0,1v3c3.3,0,2.2,3.6,4,4.8,2.4,6.7,7.7,10.7,13.6,14,21.3,12,42.7,24,64,36,61.7,34.6,123.4,69.3,185,104,2.8,1.6,6.8,1.6,8.4,5.2h20c-.3-1,.3-1.5,1.1-1.9,68.6-37.1,136.2-76.2,204.4-114.1,17.3-9.6,34.5-19.4,51.8-29.1,5.6-3.1,10.4-7.1,13.4-13h0c1.9-1.6,1-5.3,4.3-5.9V164c-3-.6-2.1-3.6-3.4-5.3ZM412.9,481.4c-32.7,24.9-69.4,40.2-110.6,42.6-87.3,5.1-153.6-30.6-199.6-104.7-.8-1.2-1.2-2.8-2.7-3.5,0,0,0,0,0,0-1.2-5.3-4.4-9.6-6.5-14.5-46-101.4-3.8-222.3,95.4-273,96.7-49.5,214.1-17.9,272.9,73.5,1.2,1.8,2.5,3.5,3.7,5.3h0c0,1.9-1.7,2.3-2.9,3-28.3,16.2-56.6,32.4-85,48.6-1.1.6-2.2,1.6-3.6,1.3h0c-.4-.9-.8-1.8-1.4-2.6-23.2-36-68.3-54.3-110.1-44.9-54.4,12.3-89.6,63.4-81.3,118.5,1.7,11.3,4.5,22.5,11.1,32.2,0,2.7,1.8,4.6,3.1,6.7,18.8,29.3,45.5,45.9,80.1,49.9,38.2,4.4,80.6-17.2,99.4-50.8,2.1-.5,3.4,1,5,1.8,27.8,15.3,55.6,30.6,83.4,45.9,1.5.8,3.7,1,3.7,3.5-14.3,23.8-32,44.6-54.1,61.5ZM278.9,314.9c30.6,16.8,61.2,33.7,91.9,50.5-30.6-16.8-61.3-33.7-91.9-50.5,0,0,0,0,0,0Z" fill="#fff" stroke-width="0"/></svg>