<?xml version="1.0" encoding="UTF-8"?><svg id="a" xmlns="http://www.w3.org/2000/svg" viewBox="0 0 515.9 697.4"><path d="M57.5,686.7c-2.6-4.4-4.5-7.5-6.3-10.6,3-3.9,3.8-10,10.5-11.1,1.4-.2,2.3-3.6,3.5-5.5,6.5-10.8,13.9-19,27.3-22.9,11.8-3.4,24.4-5.3,35-11.4,5.8-18.1,3.1-36.5,3.8-55.9-10.7-9.5-21.9-19.5-33-29.4-4.2-.5-8.8,1.6-11.6-2.5-6,1.1-11.8,2.2-17.8,3.3-11.3,5.8-23.4,11.1-31.7,19.6-2.2,8.2-4,15.1-5.9,22.1h-12.8c-11.1-2.9-14.6-12.1-18.7-21.2,2-5.5,4.5-11.4,5.1-18.2,1.5-17.2,5.4-33.7,16.8-47.5,6.1-7.4,10.8-16,17.5-22.8,14-14.5,30.3-26,49.6-32.5,3-1,6.4-.8,9.6-1.1,1.3-2.8,2.7-5.6,4-8.4-.4-.8-.6-1.9-1.2-2.4-11.1-10.2-22.2-20.2-33.3-30.5-5.7-5.3-9-11.9-12-19.4-3.6-9-3.7-18.2-1.7-26.1,2.3-9.3,2.8-19.4,7.8-28.3,3.4-6.1,4.8-13.3,7.7-19.7,8.9-19.7,18-39.4,27.4-59,2.5-5.2,6.2-9.8,9.4-14.8,2.7-.8,5.7-1.6,9.1-2.6,3.8,3.9,4.7,9.5,3.9,15.4-.8,5.7-2.2,11.3-1.4,17.7,4.3-8.2,9.2-16.2,12.8-24.7,4.9-11.7,11.8-22,18.9-32.3h10c1.3,7.3,2.7,14.8,4.2,22.7,10-17,24.3-30,38.3-43.3,3.3-3.1,8.9-3.9,13.7-5.9,3.8-5.4,7.4-11.8,12.1-17.2,18.9-21.6,29.4-47.9,41.3-73.3,8.1-17.3,16.3-34.4,25.3-51.2,5.7-10.8,10.7-21.9,19.5-30.7.8-.8.7-2.5,1.1-4,5.1-1.4,10-2.2,13.6,3.3,1.5,17.1-1.4,24.1-10.3,51.4-2.9,8.8-7.8,17.4-6.8,27.4.2,2.2-2,4.7-4.3,9.6,5.6-3.2,9.4-4.9,12.5-7.4,7.2-5.8,14.1-12.1,21.2-18.2,17.1-14.7,34.3-29.1,53-41.7,8.7-5.9,16.3-13.2,23.6-19.2h13.5c3.9,2.8,5.5,6.2,3.6,10.1-1.5,3.2-3.6,6.3-6,9-16.6,18.1-33.4,36.1-50.9,54.8,2.2-.4,4.3-.2,5.7-1.1,11.2-7.3,21.4-16.4,34.7-20.4,4.6-1.4,8.5-4.7,12.9-6.9,7.9-4,15.8-7.9,24.5-12.2,2.8,3.2,5.4,6.3,8.3,9.8.1,5.3-3,9.6-6.9,13.8-10.3,11-20.6,22-30.4,33.3-8.8,10.1-16.6,21-25.6,30.9-5.1,5.6-11.8,9.8-16.7,16.6,1.8-.7,3.6-1.5,5.4-2.2,18.8-7.8,37-16.8,55.7-24.8,12.2-5.2,24.8-9.6,36.6-15.7,1-.5,2.5-.2,4.5-.4,1.4,9.9-2.4,18.4-7.3,25.5-5.1,7.4-12,13.8-19.1,19.3-12.2,9.4-25,17.9-37.8,26.5-7,4.7-14.4,8.9-23.9,14.6,5.4,0,8.6-.1,11.7,0,16.3.9,32.7,1.7,49,3,4.9.4,9.6,2.3,15.4,3.8,2.4,2.5,5.8,5.8,9.5,9.5-.7,5.7-6.8,7.3-9.3,11.8-12.2,3.2-24.2,6.4-36.5,9.6,5,7.5,1.7,13.7-3.1,21.6-4.5,1.4-10.5,3.2-17.2,5.3,8.4,6.2,16.9,12.5,25.3,18.6v13.4c-2.3,13.6-13.9,15.8-22.6,22-.9,10.8,10.7,20.7,3.3,32.9,1.9,1.3,4.5,3,8.1,5.4-.9,5,2,11.4-2.5,17.5-1.2,1.6,1,5.8,2,10.2-.6,1.4-1.8,4.2-3.2,7.3-2.1.2-4.3.5-7.2.8v9.8c-3.7,2.4-7.1,4.6-11.4,7.4-.2,1.6-.5,3.8-1,7.2-10.7,7.3-14,24.1-30.7,27.3-.4,4.4-2.2,9,1.8,12.3-1,2.2-2,4.2-3.2,6.6-9.6,4.1-19.9,7-31.1,6.6-10.4-.4-10.5,0-19.2,4v6.4c6.7-.6,13.1-.8,19.2-1.9,11.5-2,23.2-3.9,34.4-6.9,22.7-6.1,45-13.5,67.4-20.6,10.9-3.5,24-3.5,36.6,3-.6,6.2-1.3,12.9-2.2,22.2.7,2.1,5.2,1.4,9,2.9,3.1,1.2,4.8,6.2,6.8,9.1-1.1,2.1-2,4.1-2.8,5.6,7,2.3,13.3,4.4,19,6.4,3,8.7,0,14.5-4,19.7,1.8,3.2,3.6,6.3,5.4,9.6-1.2,2.7-2.4,5.5-3.7,8.5-6.9,4.9-15.7,1.6-22.6,4.1-7.4,2.7-15,2.7-22.3,4.8-7.7,2.2-16.3.7-24.6,2.9-7.6,2-16.2.4-24.3.4h-25.4c-2.4,4.2-5,8.9-8,14.2-9.4,1.1-18.8-2.3-28.1-5.7-6.6-2.4-12.8-3.7-18.4.9,4.6,4.6,9.2,9.2,13.6,13.5-.3,6.4,2.2,12.2-4,16.9h-18.1c-4.8,4.8-8.7,8.8-12.5,12.7-12.8-1.5-24.3-2.8-35.4-4.1-4.2,6.3-3.9,15.3-14.6,15.7,2,3.1,3.1,5,4.4,7-1.2,2.7-2.4,5.6-4,9.2-9.3-3.9-10.7,11-20.1,8.7-7.1,6.1-15.6,1.2-24.4,3.5-1.3,2.1-3.1,5.1-5,8.2-3.5,5.9-4.8,13.1-12.9,16.3-4,1.6-6.3,7.6-9.5,11.9h-14.4c-5.3-3.1-10.9-7.3-18.8-4.8v12.1c-1.5,1.5-2.5,2.5-4.6,4.6-3.3-.4-7.5-1-12.2-1.6v8.7c-3.6,4.7-5.9,7.7-8.4,10.9-6.7-5.5-12.7-10.5-18.4-15.2h-15.4c-4,6.6-15.6,6.1-16.2,16.8h-10.4c-2.2-3.5-4.4-6.9-6.8-10.7h-13.1Z" fill="#fff" stroke-width="0"/></svg>