<?xml version="1.0" encoding="UTF-8"?><svg id="a" xmlns="http://www.w3.org/2000/svg" viewBox="0 0 323.2 155.8"><path d="M0,154.7c16.2-4.3,28.3-14.5,38.7-27,13.6-16.3,23-34.8,29.2-55.2,6.4-20.9,16.3-40.1,32.8-55.1,9.7-8.8,20.7-15.2,33.9-16.8.9-.1,1.9,0,3.3,0-17.3,21-26.3,45.6-34.3,70.6-3.5,10.9-4.6,22.2-.5,33.4,5.9,16.3,18.6,25.1,34.7,28.4,9.6,2,19.8,1.4,29.8,1.8,4.3.2,8.6,0,14.2,0-4,7.3-7.4,13.8-11.2,19.9-.6,1-3.3,1.1-5,1.1-51.2,0-102.3,0-153.5,0-4,0-8,0-12,0v-1Z" fill="#fff" stroke-width="0"/><path d="M141.3,21.3c4-7.3,7-13.6,10.8-19.4.9-1.4,4-1.8,6.1-1.8C190.4,0,222.5,0,254.7,0c21.5,0,43,0,64.5.1,1.1,0,2.2,0,4,0-6.4,3.2-12.2,5.6-17.4,8.9-19.3,12.4-31.9,30.5-41.4,50.8-5.1,11-8.4,22.8-12.8,34.1-7.4,18.7-17.5,35.5-33.3,48.4-9.6,7.8-22.3,13-32.2,13.1,0-.3-.3-.7-.2-.9,15.4-17.6,23-39.2,30.8-60.6,2.7-7.4,4.9-15.4,5.6-23.2,2-23.5-10.7-41.5-34.3-46.9-11.8-2.7-24.4-1.8-36.7-2.5-2.9-.2-5.8,0-9.8,0Z" fill="#fff" stroke-width="0"/></svg>