<?xml version="1.0" encoding="UTF-8"?><svg id="a" xmlns="http://www.w3.org/2000/svg" viewBox="0 0 726.6 682.6"><path d="M635.2,682.6c29.1-27.6,18.1-48.1-8.4-64.7-82-51.2-172.8-81-265.5-105.3-30.1-7.9-57.5,12.3-86.7,17.1-69.2,11.4-129.5,6-175.9-57.2-19.5-26.5-49.3-10.1-73.4,3.8-7.5,4.3-15,18.8-23.5,3.9-6-10.6,4.1-17.9,12.9-23.3,3.2-1.9,6.5-5,9.9-5,51.6-.6,60.1-32.5,63.7-76.5,6.3-78.8,50.4-141.7,99.4-200.4,52.9-63.4,114.2-117.7,185.7-159.7,24.5-14.4,49.5-24.6,75.5-2.1,8,6.9,17.9,5.9,28.2,5.6,144.1-4.2,225.4,126.3,156.7,251.8-40.4,73.8-102.3,127.3-170,175-9.4,6.6-26.3,10.1-22.3,25.7,3.3,13,19.1,9.1,29.2,11.7,64.9,16.8,131,29.5,192.7,56.5,26.1,11.4,63.8,18,63.3,54.4-.6,39.3-32.5,62-64.2,80.6-7.9,4.7-18.1,5.6-27.2,8.2ZM310.1,451.6c14.5,3.9,26.6-2,37.9-10.2,72.5-52.8,140.6-110.5,193.9-183.5,21.4-29.3,37.9-61.1,44.9-97.1,6.4-33.4-10.3-65.7-41.3-79-24.7-10.7-50.5-10.7-76.7-6.8-52.8,8-97.9,30.1-138.6,65.6-83.5,73-151.9,156.4-195.5,259-10.3,24.2-9.9,39.4,23.4,40.6,50.8,1.9,101.4,7.4,152.1,11.4ZM185.4,496.2c9.4-2,25.4,5,26.7-9.8,1.3-14.6-16.2-10.8-25.4-14.9-4.3-1.9-9.7-2.7-14.4-2.4-11.2.8-29.4-8.6-31.7,6.2-2.5,16.1,16.9,17.2,29.7,20,4.7,1,9.8.6,15.1.8Z" fill="#fff" stroke-width="0"/></svg>