<?xml version="1.0" encoding="UTF-8"?><svg id="a" xmlns="http://www.w3.org/2000/svg" viewBox="0 0 586.2 597"><path d="M176.8,449.4c-53.3,45-106.6,89.9-159.7,135-4.4,3.8-11.1,5.7-12.4,12.6H0v-225.9c57.2-48.5,113.3-96.2,169.4-143.9,2.2,0,4.4,0,6.6,0,.2,73.9.5,147.8.7,221.8,0,0,0,.4,0,.4Z" fill="#fff" stroke-width="0"/><path d="M176,227.3c-2.2,0-4.4,0-6.6,0,10.7-20.2-.3-39.6-3.1-58.9-7.1-47.6-16.8-94.8-25.1-142.1-1.2-6.7-.8-13.7-1.5-26.3,66.8,38.5,130.2,74.9,194.4,111.9,12.9,73.7,25.8,146.9,39.4,224.4-46.8-27-89.8-52.7-133.8-76.8-20.8-11.4-39-28.4-63.7-32.3Z" fill="#fff" stroke-width="0"/><path d="M176.8,449.4s0-.4,0-.4c58.1-28.4,112.6-63.1,168.3-95.6,19.9-11.6,36.7-14.3,58.8-5.7,58.6,23,118.1,43.4,182.3,66.7-67.5,39-131.5,76.1-195.6,113.2-72.2-26.4-143-52.3-213.8-78.2Z" fill="#fff" stroke-width="0"/></svg>